<?xml version="1.0" encoding="iso-8859-1"?>
<!-- Uploaded to: SVG Repo, www.svgrepo.com, Generator: SVG Repo Mixer Tools -->
<svg height="800px" width="800px" version="1.1" id="Layer_1" xmlns="http://www.w3.org/2000/svg" xmlns:xlink="http://www.w3.org/1999/xlink" 
	 viewBox="0 0 512 512" xml:space="preserve">
<path style="fill:#D7DEED;" d="M481.103,35.31H370.759V512h79.448C484.334,512,512,484.334,512,450.207v-384
	C512,49.143,498.167,35.31,481.103,35.31z"/>
<path style="fill:#E4EAF6;" d="M450.207,441.379V66.207c0-17.064,13.833-30.897,30.897-30.897l0,0H370.759v414.897h70.621
	C446.254,450.207,450.207,446.254,450.207,441.379z"/>
<path style="fill:#EFF2FA;" d="M388.414,450.207V8.828c0-4.875-3.953-8.828-8.828-8.828H8.828C3.953,0,0,3.953,0,8.828v450.207
	C0,488.287,23.713,512,52.966,512h397.241C416.079,512,388.414,484.334,388.414,450.207z"/>
<path style="fill:#F7ABAF;" d="M344.151,141.241H44.263c-4.945,0-8.952-4.009-8.952-8.952V44.263c0-4.943,4.009-8.952,8.952-8.952
	H344.15c4.945,0,8.952,4.009,8.952,8.952v88.025C353.103,137.233,349.095,141.241,344.151,141.241z"/>
<path style="fill:#FF6464;" d="M339.862,194.207H48.552c-7.313,0-13.241-5.929-13.241-13.241l0,0
	c0-7.313,5.929-13.241,13.241-13.241h291.31c7.313,0,13.241,5.929,13.241,13.241l0,0
	C353.103,188.278,347.175,194.207,339.862,194.207z"/>
<g>
	<path style="fill:#AFB9D2;" d="M176.552,238.345H44.138c-4.875,0-8.828-3.953-8.828-8.828l0,0c0-4.875,3.953-8.828,8.828-8.828
		h132.414c4.875,0,8.828,3.953,8.828,8.828l0,0C185.379,234.392,181.427,238.345,176.552,238.345z"/>
	<path style="fill:#AFB9D2;" d="M344.276,238.345H211.862c-4.875,0-8.828-3.953-8.828-8.828l0,0c0-4.875,3.953-8.828,8.828-8.828
		h132.414c4.875,0,8.828,3.953,8.828,8.828l0,0C353.103,234.392,349.151,238.345,344.276,238.345z"/>
</g>
<g>
	<path style="fill:#C7CFE2;" d="M176.552,273.655H44.138c-4.875,0-8.828-3.953-8.828-8.828l0,0c0-4.875,3.953-8.828,8.828-8.828
		h132.414c4.875,0,8.828,3.953,8.828,8.828l0,0C185.379,269.703,181.427,273.655,176.552,273.655z"/>
	<path style="fill:#C7CFE2;" d="M344.276,273.655H211.862c-4.875,0-8.828-3.953-8.828-8.828l0,0c0-4.875,3.953-8.828,8.828-8.828
		h132.414c4.875,0,8.828,3.953,8.828,8.828l0,0C353.103,269.703,349.151,273.655,344.276,273.655z"/>
	<path style="fill:#C7CFE2;" d="M344.276,308.966H211.862c-4.875,0-8.828-3.953-8.828-8.828l0,0c0-4.875,3.953-8.828,8.828-8.828
		h132.414c4.875,0,8.828,3.953,8.828,8.828l0,0C353.103,305.013,349.151,308.966,344.276,308.966z"/>
	<path style="fill:#C7CFE2;" d="M344.276,344.276H211.862c-4.875,0-8.828-3.953-8.828-8.828l0,0c0-4.875,3.953-8.828,8.828-8.828
		h132.414c4.875,0,8.828,3.953,8.828,8.828l0,0C353.103,340.323,349.151,344.276,344.276,344.276z"/>
	<path style="fill:#C7CFE2;" d="M344.276,414.897H211.862c-4.875,0-8.828-3.953-8.828-8.828l0,0c0-4.875,3.953-8.828,8.828-8.828
		h132.414c4.875,0,8.828,3.953,8.828,8.828l0,0C353.103,410.944,349.151,414.897,344.276,414.897z"/>
</g>
<g style="opacity:0.5;">
	<path style="fill:#FF6464;" d="M344.276,379.586H211.862c-4.875,0-8.828-3.953-8.828-8.828l0,0c0-4.875,3.953-8.828,8.828-8.828
		h132.414c4.875,0,8.828,3.953,8.828,8.828l0,0C353.103,375.634,349.151,379.586,344.276,379.586z"/>
</g>
<path style="fill:#C7CFE2;" d="M344.276,450.207H211.862c-4.875,0-8.828-3.953-8.828-8.828l0,0c0-4.875,3.953-8.828,8.828-8.828
	h132.414c4.875,0,8.828,3.953,8.828,8.828l0,0C353.103,446.254,349.151,450.207,344.276,450.207z"/>
<path style="fill:#E4EAF6;" d="M176.552,450.207H44.138c-4.875,0-8.828-3.953-8.828-8.828V300.138c0-4.875,3.953-8.828,8.828-8.828
	h132.414c4.875,0,8.828,3.953,8.828,8.828v141.241C185.379,446.254,181.427,450.207,176.552,450.207z"/>
<g>
	<circle style="fill:#C7CFE2;" cx="110.345" cy="348.69" r="30.897"/>
	<path style="fill:#C7CFE2;" d="M167.501,450.207c-2.261-29.62-26.957-52.966-57.156-52.966s-54.895,23.346-57.156,52.966H167.501z"
		/>
</g>
</svg>